<svg xmlns="http://www.w3.org/2000/svg" viewBox="0 0 32 32" role="img" aria-label="7 of hearts">
  <rect width="32" height="32" rx="6" fill="#fff"/>
  <rect x="1.25" y="1.25" width="29.5" height="29.5" rx="5" fill="none" stroke="#d6dbe3" stroke-width="1.5"/>
  <g fill="#c41e3a">
    <text x="4" y="13" font-family="ui-serif, Georgia, Times, serif" font-size="11" font-weight="700">7</text>
    <path d="M6.2 14.1c0-1.35 1-2.4 2.15-2.4.85 0 1.55.5 2.05 1.35.5-.85 1.2-1.35 2.05-1.35 1.15 0 2.15 1.05 2.15 2.4 0 2.7-4.2 4.7-4.2 4.7s-4.2-2-4.2-4.7z"/>
    <path d="M16 11.1c-1.55-2.7-5.35-2.6-6.7-.3-1.35 2.2.2 4.8 3.1 7.15L16 21.6l3.6-3.65c2.9-2.35 4.45-4.95 3.1-7.15-1.35-2.3-5.15-2.4-6.7-.3z"/>
  </g>
</svg>
